<?xml version="1.0" encoding="UTF-8"?>
<svg id="a" data-name="RTHA logo" xmlns="http://www.w3.org/2000/svg" viewBox="0 0 600 287">
  <g>
    <g>
      <g>
        <path d="m95.81,144.13c3.43,3.28,5.14,8.7,5.14,16.26v24.52h-12.39v-23.99c0-3.75-.76-6.61-2.29-8.57-1.52-1.96-3.81-2.94-6.86-2.94s-5.64,1.09-7.43,3.25c-1.79,2.17-2.68,5.19-2.68,9.05v23.2h-12.39v-61.52h12.39v21.89c3.34-4.04,7.79-6.07,13.36-6.07s9.71,1.64,13.14,4.92Z" style="fill: #e6223b;"/>
        <path d="m110.34,150.16c1.9-3.49,4.57-6.18,8-8.09,3.43-1.9,7.4-2.86,11.91-2.86s8.6.89,12.09,2.68c3.49,1.79,6.21,4.31,8.17,7.56,1.96,3.25,2.97,7.07,3.03,11.47,0,1.58-.12,2.99-.35,4.22h-32.78v.35c.29,3.28,1.35,5.86,3.16,7.74,1.82,1.88,4.31,2.81,7.47,2.81,2.52,0,4.61-.54,6.28-1.63,1.67-1.08,2.77-2.68,3.3-4.79h12.22c-.47,2.99-1.61,5.68-3.43,8.08-1.82,2.4-4.22,4.29-7.21,5.67-2.99,1.38-6.42,2.07-10.28,2.07-5.04,0-9.39-.94-13.05-2.81-3.66-1.87-6.48-4.55-8.44-8.04-1.96-3.49-2.94-7.54-2.94-12.17s.95-8.77,2.86-12.26Zm30.81,6.9c-.41-2.75-1.54-4.88-3.38-6.37-1.85-1.5-4.17-2.24-6.99-2.24s-4.97.78-6.81,2.33c-1.85,1.55-2.94,3.65-3.3,6.28h20.48Z" style="fill: #e6223b;"/>
        <path d="m285.31,139.74v45.18h-10.99l-1.05-6.33c-3.57,4.51-8.26,6.77-14.06,6.77-3.99,0-7.56-.94-10.72-2.81-3.16-1.87-5.64-4.57-7.43-8.08-1.79-3.52-2.68-7.59-2.68-12.22s.89-8.61,2.68-12.13c1.79-3.51,4.28-6.22,7.47-8.13,3.19-1.9,6.78-2.86,10.77-2.86,3.05,0,5.74.59,8.09,1.76,2.34,1.17,4.28,2.78,5.8,4.83l1.23-5.98h10.9Zm-15.21,32.04c1.99-2.37,2.99-5.49,2.99-9.36s-1-7.09-2.99-9.49c-1.99-2.4-4.66-3.6-8-3.6s-6.02,1.2-8.04,3.6c-2.02,2.4-3.03,5.57-3.03,9.49s1.01,6.99,3.03,9.36c2.02,2.37,4.7,3.56,8.04,3.56s6.01-1.19,8-3.56Z" style="fill: #e6223b;"/>
        <path d="m339.1,139.74v43.86c0,5.92-1.96,10.64-5.89,14.15-3.93,3.51-10.02,5.27-18.28,5.27-6.39,0-11.54-1.41-15.47-4.22-3.93-2.81-6.04-6.8-6.33-11.95h12.48c.59,2.17,1.74,3.84,3.47,5.01,1.73,1.17,4,1.76,6.81,1.76,3.52,0,6.24-.88,8.17-2.64,1.93-1.76,2.9-4.37,2.9-7.82v-4.75c-3.28,4.16-7.94,6.24-13.97,6.24-3.99,0-7.56-.94-10.72-2.81-3.16-1.87-5.64-4.53-7.43-7.95-1.79-3.43-2.68-7.43-2.68-12s.89-8.5,2.68-11.95c1.79-3.46,4.28-6.12,7.47-8,3.19-1.87,6.78-2.81,10.77-2.81,5.92,0,10.6,2.28,14.06,6.86l1.05-6.24h10.9Zm-15.21,31.47c1.99-2.34,2.99-5.39,2.99-9.14s-1-6.91-2.99-9.32c-1.99-2.4-4.66-3.6-8-3.6s-6.02,1.19-8.04,3.56c-2.02,2.37-3.03,5.46-3.03,9.27s1.01,6.89,3.03,9.23c2.02,2.34,4.7,3.51,8.04,3.51s6.01-1.17,8-3.51Z" style="fill: #e6223b;"/>
        <path d="m390.26,139.74v45.18h-10.99l-1.14-5.45c-1.58,1.88-3.43,3.34-5.54,4.39-2.11,1.05-4.69,1.58-7.73,1.58-5.27,0-9.58-1.63-12.92-4.88-3.34-3.25-5.01-8.69-5.01-16.3v-24.52h12.39v23.03c0,4.1.72,7.19,2.15,9.27,1.44,2.08,3.65,3.12,6.64,3.12s5.51-1.16,7.21-3.47c1.7-2.31,2.55-5.55,2.55-9.71v-22.24h12.39Z" style="fill: #e6223b;"/>
        <path d="m399.5,150.16c1.9-3.49,4.57-6.18,8-8.09,3.43-1.9,7.4-2.86,11.91-2.86s8.6.89,12.09,2.68c3.49,1.79,6.21,4.31,8.17,7.56,1.96,3.25,2.97,7.07,3.03,11.47,0,1.58-.12,2.99-.35,4.22h-32.78v.35c.29,3.28,1.35,5.86,3.16,7.74,1.82,1.88,4.31,2.81,7.47,2.81,2.52,0,4.61-.54,6.28-1.63,1.67-1.08,2.77-2.68,3.3-4.79h12.22c-.47,2.99-1.61,5.68-3.43,8.08-1.82,2.4-4.22,4.29-7.21,5.67-2.99,1.38-6.42,2.07-10.28,2.07-5.04,0-9.39-.94-13.05-2.81-3.66-1.87-6.48-4.55-8.44-8.04-1.96-3.49-2.94-7.54-2.94-12.17s.95-8.77,2.86-12.26Zm30.81,6.9c-.41-2.75-1.54-4.88-3.38-6.37-1.85-1.5-4.17-2.24-6.99-2.24s-4.97.78-6.81,2.33c-1.85,1.55-2.94,3.65-3.3,6.28h20.48Z" style="fill: #e6223b;"/>
      </g>
      <g>
        <path d="m69.5,233.39h-7.29v-10.46h19.78v45.18h-12.48v-34.72Zm11.38-27.29c1.38,1.32,2.07,2.98,2.07,4.97s-.69,3.66-2.07,5.01c-1.38,1.35-3.09,2.02-5.14,2.02s-3.75-.67-5.1-2.02c-1.35-1.35-2.02-3.02-2.02-5.01s.67-3.65,2.02-4.97c1.35-1.32,3.05-1.98,5.1-1.98s3.76.66,5.14,1.98Z" style="fill: #e6223b;"/>
        <path d="m162.29,225.26c3.13,1.9,5.6,4.61,7.38,8.13,1.79,3.51,2.68,7.59,2.68,12.22s-.89,8.67-2.68,12.13c-1.79,3.46-4.26,6.14-7.43,8.04-3.16,1.9-6.77,2.86-10.81,2.86-5.8,0-10.34-2.08-13.62-6.24v23.29h-12.39v-62.75h10.81l1.23,6.24c1.52-2.05,3.47-3.69,5.84-4.92s5.11-1.85,8.22-1.85c4.04,0,7.63.95,10.77,2.86Zm-5.58,29.62c2.05-2.43,3.08-5.58,3.08-9.45s-1.03-6.99-3.08-9.36c-2.05-2.37-4.75-3.56-8.09-3.56s-6.01,1.19-8,3.56c-1.99,2.37-2.99,5.49-2.99,9.36s1,7.09,2.99,9.49c1.99,2.4,4.66,3.6,8,3.6s6.03-1.22,8.09-3.65Z" style="fill: #e6223b;"/>
        <path d="m188.28,265.77c-3.6-1.9-6.39-4.61-8.35-8.13-1.96-3.52-2.94-7.56-2.94-12.13s.98-8.61,2.94-12.13c1.96-3.51,4.75-6.22,8.35-8.13,3.6-1.9,7.78-2.86,12.52-2.86s8.92.95,12.52,2.86c3.6,1.9,6.39,4.61,8.35,8.13,1.96,3.51,2.94,7.56,2.94,12.13s-.98,8.69-2.94,12.17c-1.96,3.49-4.75,6.18-8.35,8.09-3.6,1.9-7.78,2.86-12.52,2.86s-8.92-.95-12.52-2.86Zm20.74-10.85c2.02-2.4,3.03-5.54,3.03-9.41s-1.01-7-3.03-9.4c-2.02-2.4-4.76-3.6-8.22-3.6s-6.11,1.2-8.13,3.6c-2.02,2.4-3.03,5.54-3.03,9.4s1.01,7,3.03,9.41c2.02,2.4,4.73,3.6,8.13,3.6s6.2-1.2,8.22-3.6Z" style="fill: #e6223b;"/>
        <path d="m264.53,210.27h12.39v12.66h10.28v10.46h-10.28v19.78c0,1.58.34,2.72,1.01,3.43.67.7,1.8,1.05,3.38,1.05h6.42v10.46h-10.28c-8.61,0-12.92-4.31-12.92-12.92v-44.91Z" style="fill: #e6223b;"/>
        <path d="m104.98,268.18h-12.48v-34.44c0-5.93,4.8-10.73,10.73-10.73h16.83v5.63c0,2.67-2.16,4.83-4.83,4.83h-10.25s0,34.72,0,34.72Z" style="fill: #e6223b;"/>
        <path d="m243.96,268.18h-12.48v-34.44c0-5.93,4.8-10.73,10.73-10.73h16.83v5.63c0,2.67-2.16,4.83-4.83,4.83h-10.25s0,34.72,0,34.72Z" style="fill: #e6223b;"/>
      </g>
      <g>
        <path d="m67.5,100.02c-3.6-1.9-6.39-4.61-8.35-8.13-1.96-3.52-2.94-7.56-2.94-12.13s.98-8.61,2.94-12.13c1.96-3.51,4.75-6.22,8.35-8.13,3.6-1.9,7.78-2.86,12.52-2.86s8.92.95,12.52,2.86c3.6,1.9,6.39,4.61,8.35,8.13,1.96,3.51,2.94,7.56,2.94,12.13s-.98,8.69-2.94,12.17c-1.96,3.49-4.75,6.18-8.35,8.09-3.6,1.9-7.78,2.86-12.52,2.86s-8.92-.95-12.52-2.86Zm20.74-10.85c2.02-2.4,3.03-5.54,3.03-9.41s-1.01-7-3.03-9.4c-2.02-2.4-4.76-3.6-8.22-3.6s-6.11,1.2-8.13,3.6c-2.02,2.4-3.03,5.54-3.03,9.4s1.01,7,3.03,9.41c2.02,2.4,4.73,3.6,8.13,3.6s6.2-1.2,8.22-3.6Z" style="fill: #e6223b;"/>
        <path d="m109.3,44.52h12.39v12.66h10.28v10.46h-10.28v19.78c0,1.58.34,2.72,1.01,3.43.67.7,1.8,1.05,3.38,1.05h6.42v10.46h-10.28c-8.61,0-12.92-4.31-12.92-12.92v-44.91Z" style="fill: #e6223b;"/>
        <path d="m140.02,44.52h12.39v12.66h10.28v10.46h-10.28v19.78c0,1.58.34,2.72,1.01,3.43.67.7,1.8,1.05,3.38,1.05h6.42v10.46h-10.28c-8.61,0-12.92-4.31-12.92-12.92v-44.91Z" style="fill: #e6223b;"/>
        <path d="m169.27,67.59c1.9-3.49,4.57-6.18,8-8.09,3.43-1.9,7.4-2.86,11.91-2.86s8.6.89,12.09,2.68c3.49,1.79,6.21,4.31,8.17,7.56,1.96,3.25,2.97,7.07,3.03,11.47,0,1.58-.12,2.99-.35,4.22h-32.78v.35c.29,3.28,1.35,5.86,3.16,7.74,1.82,1.88,4.31,2.81,7.47,2.81,2.52,0,4.61-.54,6.28-1.63,1.67-1.08,2.77-2.68,3.3-4.79h12.22c-.47,2.99-1.61,5.68-3.43,8.08-1.82,2.4-4.22,4.29-7.21,5.67-2.99,1.38-6.42,2.07-10.28,2.07-5.04,0-9.39-.94-13.05-2.81-3.66-1.87-6.48-4.55-8.44-8.04-1.96-3.49-2.94-7.54-2.94-12.17s.95-8.77,2.86-12.26Zm30.81,6.9c-.41-2.75-1.54-4.88-3.38-6.37-1.85-1.5-4.17-2.24-6.99-2.24s-4.97.78-6.81,2.33c-1.85,1.55-2.94,3.65-3.3,6.28h20.48Z" style="fill: #e6223b;"/>
        <path d="m294.1,40.83v61.52h-10.81l-1.23-6.24c-3.46,4.51-8.15,6.77-14.06,6.77-3.99,0-7.56-.95-10.72-2.86-3.16-1.9-5.64-4.61-7.43-8.13-1.79-3.52-2.68-7.59-2.68-12.22s.89-8.6,2.68-12.08c1.79-3.49,4.28-6.18,7.47-8.09,3.19-1.9,6.78-2.86,10.77-2.86,5.86,0,10.4,2.05,13.62,6.15v-21.97h12.39Zm-15.21,48.38c1.99-2.37,2.99-5.49,2.99-9.36s-1-7.09-2.99-9.49c-1.99-2.4-4.66-3.6-8-3.6s-6.02,1.2-8.04,3.6c-2.02,2.4-3.03,5.54-3.03,9.4s1.01,7,3.03,9.41c2.02,2.4,4.7,3.6,8.04,3.6s6.01-1.19,8-3.56Z" style="fill: #e6223b;"/>
        <path d="m346.49,57.18v45.18h-10.99l-1.05-6.33c-3.57,4.51-8.26,6.77-14.06,6.77-3.99,0-7.56-.94-10.72-2.81-3.16-1.87-5.64-4.57-7.43-8.08-1.79-3.52-2.68-7.59-2.68-12.22s.89-8.61,2.68-12.13c1.79-3.51,4.28-6.22,7.47-8.13,3.19-1.9,6.78-2.86,10.77-2.86,3.05,0,5.74.59,8.09,1.76,2.34,1.17,4.28,2.78,5.8,4.83l1.23-5.98h10.9Zm-15.21,32.04c1.99-2.37,2.99-5.49,2.99-9.36s-1-7.09-2.99-9.49c-1.99-2.4-4.66-3.6-8-3.6s-6.02,1.2-8.04,3.6c-2.02,2.4-3.03,5.57-3.03,9.49s1.01,6.99,3.03,9.36c2.02,2.37,4.7,3.56,8.04,3.56s6.01-1.19,8-3.56Z" style="fill: #e6223b;"/>
        <path d="m421.28,61.48c3.05,3.22,4.57,8.59,4.57,16.08v24.87h-12.39v-25.31c0-6.86-2.61-10.28-7.82-10.28-2.7,0-4.86.95-6.5,2.86-1.64,1.9-2.46,4.56-2.46,7.95v24.79h-12.39v-25.31c0-6.86-2.64-10.28-7.91-10.28-2.7,0-4.85.98-6.46,2.94-1.61,1.96-2.42,4.61-2.42,7.95v24.7h-12.39v-45.26h10.81l1.14,5.62c1.52-1.93,3.34-3.43,5.45-4.48,2.11-1.05,4.75-1.61,7.91-1.67,6.45,0,10.93,2.55,13.45,7.65,1.64-2.46,3.79-4.35,6.46-5.67,2.67-1.32,5.7-1.98,9.1-1.98,4.86,0,8.82,1.61,11.86,4.83Z" style="fill: #e6223b;"/>
        <path d="m231.72,102.35h-12.48v-34.44c0-5.93,4.8-10.73,10.73-10.73h16.83v5.63c0,2.67-2.16,4.83-4.83,4.83h-10.25s0,34.72,0,34.72Z" style="fill: #e6223b;"/>
      </g>
    </g>
    <path d="m30.63,40.28c4.48,0,8.44.84,11.88,2.52,3.45,1.68,6.11,4.08,8,7.2,1.88,3.12,2.83,6.75,2.83,10.87s-.94,7.44-2.83,10.47c-1.89,3.03-4.48,5.35-7.77,6.94l12.19,23.85h-14.67l-10.34-20.76h-11.22v20.76H5.45v-61.84h25.18Zm-11.93,30.04h10.87c3.12,0,5.61-.85,7.47-2.56,1.86-1.71,2.78-4,2.78-6.89s-.93-5.27-2.78-6.98c-1.85-1.71-4.34-2.56-7.47-2.56h-10.87v18.99Z" style="fill: #e6223b;"/>
    <path d="m2.09,123.27h48.94v11.4h-17.85v50.45h-13.25v-50.45H2.09v-11.4Z" style="fill: #e6223b;"/>
    <path d="m180.65,123.27h13.25v24.82h24.56v-24.82h13.25v61.84h-13.25v-25.53h-24.56v25.53h-13.25v-61.84Z" style="fill: #e6223b;"/>
    <path d="m.5,268.11l22.62-61.84h15.9l22.44,61.84h-14.22l-4.77-13.52h-23.5l-4.77,13.52H.5Zm22-24.21h16.34l-8.22-23.5-8.13,23.5Z" style="fill: #e6223b;"/>
  </g>
  <path d="m597.02,147.75c-1.28-1.08-2.96-1.59-4.64-1.59h-26.18c-10.61,0-16.15,6.93-16.15,6.93-3.37,3.8-35.07,39.57-55.9,63.11V80.86c0-3.68-2.98-6.66-6.66-6.66h-6.97v-23.54h9.91l-4.9-36.68,9.98-3.74h30.44l9.91,3.73-5.57,36.68h10.59v23.54h-6.97c-3.68,0-6.66,2.98-6.66,6.66v21.58s27.45,0,27.45,0v14.87l-23.88,13.22c-2.26,1.25-3.57,3.63-3.57,6.21v19.74c5.34,0,9.93-4.49,9.93-9.83v-8.28l24.52-13.57c1.81-1,2.93-2.9,2.93-4.96v-21.69c0-3.1-2.51-5.62-5.62-5.62h-21.83v-8.39h3.7c5.48,0,9.93-4.44,9.93-9.93h0v-27.85c0-3.1-2.51-5.62-5.62-5.62h-3.65l4.76-29.71c.35-2.47-1.2-4.82-3.61-5.48l-15.41-5.23h-32.43c-.44,0-16.14,5.23-16.14,5.23-2.41.65-3.96,3-3.62,5.48l4.37,29.71h-3.25c-3.1,0-5.62,2.51-5.62,5.62v27.85h0c0,5.48,4.44,9.93,9.93,9.93h3.7v143.29h0c-1.86,2.11-6.85,8-11.9,12.35-13.66,11.76-33.01,18.7-52.62,18.7l-85.73.03c-5.29,0-9.58,4.29-9.58,9.58v.28l95.31.03c23.23,0,44.9-8.68,59.01-21.03,6.26-5.48,10.33-10.41,11.68-11.94,0,0,66.17-74.84,66.43-75.13.94-1.03,3.5-4.22,9.37-4.22h22.24l-32.98,102.37h-61.32v-14.16c-3.13,3.42-4.6,5.03-9.93,9.82v14.28s74.84,0,74.84,0h.02c2.16,0,4.07-1.4,4.73-3.46,0,0,35.53-110.43,35.57-110.64.43-2.43-.44-4.92-2.37-6.55Z" style="fill: #e6223b;"/>
</svg>